<mxfile host="app.diagrams.net" modified="2023-12-18T08:23:56.234Z" agent="Mozilla/5.0 (Windows NT 10.0; Win64; x64; rv:120.0) Gecko/20100101 Firefox/120.0" etag="KpaKF-jRquFkSu6m9_q3" version="22.1.11" type="github">
  <diagram name="Page-1" id="O-Mc9IpzTSZV31hoqgJX">
    <mxGraphModel dx="1512" dy="598" grid="1" gridSize="10" guides="1" tooltips="1" connect="1" arrows="1" fold="1" page="1" pageScale="1" pageWidth="850" pageHeight="1100" math="0" shadow="0">
      <root>
        <mxCell id="0" />
        <mxCell id="1" parent="0" />
        <mxCell id="ijUQ5QHxTH0PN0Z5ZuHK-1" value="" style="swimlane;startSize=0;" vertex="1" parent="1">
          <mxGeometry x="-50" y="40" width="820" height="860" as="geometry" />
        </mxCell>
        <mxCell id="ijUQ5QHxTH0PN0Z5ZuHK-3" value="" style="rounded=1;whiteSpace=wrap;html=1;" vertex="1" parent="ijUQ5QHxTH0PN0Z5ZuHK-1">
          <mxGeometry y="700" width="820" height="160" as="geometry" />
        </mxCell>
        <mxCell id="ijUQ5QHxTH0PN0Z5ZuHK-5" value="Văn Phòng 1" style="text;html=1;align=center;verticalAlign=middle;resizable=0;points=[];autosize=1;strokeColor=none;fillColor=none;" vertex="1" parent="ijUQ5QHxTH0PN0Z5ZuHK-1">
          <mxGeometry x="60" y="750" width="90" height="30" as="geometry" />
        </mxCell>
        <mxCell id="ijUQ5QHxTH0PN0Z5ZuHK-6" value="Server" style="ellipse;whiteSpace=wrap;html=1;aspect=fixed;" vertex="1" parent="ijUQ5QHxTH0PN0Z5ZuHK-1">
          <mxGeometry x="260" y="690" width="140" height="140" as="geometry" />
        </mxCell>
        <mxCell id="ijUQ5QHxTH0PN0Z5ZuHK-13" value="" style="shape=mxgraph.cisco.modems_and_phones.cable_modem;html=1;pointerEvents=1;dashed=0;fillColor=#036897;strokeColor=#ffffff;strokeWidth=2;verticalLabelPosition=bottom;verticalAlign=top;align=center;outlineConnect=0;" vertex="1" parent="ijUQ5QHxTH0PN0Z5ZuHK-1">
          <mxGeometry x="293" y="700" width="74" height="35" as="geometry" />
        </mxCell>
        <mxCell id="ijUQ5QHxTH0PN0Z5ZuHK-15" value="" style="endArrow=none;html=1;rounded=0;strokeWidth=4;fillColor=#e51400;strokeColor=#B20000;" edge="1" parent="ijUQ5QHxTH0PN0Z5ZuHK-1">
          <mxGeometry width="50" height="50" relative="1" as="geometry">
            <mxPoint x="329.9988888888889" y="690" as="sourcePoint" />
            <mxPoint x="330" y="650" as="targetPoint" />
          </mxGeometry>
        </mxCell>
        <mxCell id="ijUQ5QHxTH0PN0Z5ZuHK-17" value="" style="endArrow=none;html=1;rounded=0;" edge="1" parent="ijUQ5QHxTH0PN0Z5ZuHK-1">
          <mxGeometry width="50" height="50" relative="1" as="geometry">
            <mxPoint x="339.9988888888889" y="690" as="sourcePoint" />
            <mxPoint x="340" y="650" as="targetPoint" />
            <Array as="points">
              <mxPoint x="340" y="620" />
            </Array>
          </mxGeometry>
        </mxCell>
        <mxCell id="ijUQ5QHxTH0PN0Z5ZuHK-18" value="" style="endArrow=none;html=1;rounded=0;fillColor=#e3c800;strokeColor=#B09500;strokeWidth=4;" edge="1" parent="ijUQ5QHxTH0PN0Z5ZuHK-1">
          <mxGeometry width="50" height="50" relative="1" as="geometry">
            <mxPoint x="319.9988888888889" y="690" as="sourcePoint" />
            <mxPoint x="320" y="650" as="targetPoint" />
            <Array as="points">
              <mxPoint x="320" y="630" />
            </Array>
          </mxGeometry>
        </mxCell>
        <mxCell id="ijUQ5QHxTH0PN0Z5ZuHK-34" value="" style="endArrow=none;html=1;rounded=0;fillColor=#e3c800;strokeColor=#B09500;strokeWidth=4;" edge="1" parent="ijUQ5QHxTH0PN0Z5ZuHK-1">
          <mxGeometry width="50" height="50" relative="1" as="geometry">
            <mxPoint x="800" y="630" as="sourcePoint" />
            <mxPoint x="330" y="630" as="targetPoint" />
            <Array as="points">
              <mxPoint x="320" y="630" />
            </Array>
          </mxGeometry>
        </mxCell>
        <mxCell id="ijUQ5QHxTH0PN0Z5ZuHK-32" value="" style="endArrow=none;html=1;rounded=0;fillColor=#e51400;strokeColor=#B20000;strokeWidth=4;" edge="1" parent="ijUQ5QHxTH0PN0Z5ZuHK-1">
          <mxGeometry width="50" height="50" relative="1" as="geometry">
            <mxPoint x="780" y="650" as="sourcePoint" />
            <mxPoint x="340" y="650" as="targetPoint" />
            <Array as="points">
              <mxPoint x="330" y="650" />
            </Array>
          </mxGeometry>
        </mxCell>
        <mxCell id="ijUQ5QHxTH0PN0Z5ZuHK-36" value="" style="endArrow=none;html=1;rounded=0;fillColor=#e3c800;strokeColor=#B09500;strokeWidth=5;" edge="1" parent="ijUQ5QHxTH0PN0Z5ZuHK-1">
          <mxGeometry width="50" height="50" relative="1" as="geometry">
            <mxPoint x="770" y="631" as="sourcePoint" />
            <mxPoint x="770" y="461" as="targetPoint" />
          </mxGeometry>
        </mxCell>
        <mxCell id="ijUQ5QHxTH0PN0Z5ZuHK-37" value="" style="endArrow=none;html=1;rounded=0;strokeWidth=5;" edge="1" parent="ijUQ5QHxTH0PN0Z5ZuHK-1">
          <mxGeometry width="50" height="50" relative="1" as="geometry">
            <mxPoint x="790" y="620" as="sourcePoint" />
            <mxPoint x="790" y="450" as="targetPoint" />
          </mxGeometry>
        </mxCell>
        <mxCell id="ijUQ5QHxTH0PN0Z5ZuHK-38" value="" style="endArrow=none;html=1;rounded=0;fillColor=#e51400;strokeColor=#B20000;strokeWidth=4;" edge="1" parent="ijUQ5QHxTH0PN0Z5ZuHK-1">
          <mxGeometry width="50" height="50" relative="1" as="geometry">
            <mxPoint x="780" y="649" as="sourcePoint" />
            <mxPoint x="780" y="479" as="targetPoint" />
          </mxGeometry>
        </mxCell>
        <mxCell id="ijUQ5QHxTH0PN0Z5ZuHK-39" value="" style="endArrow=none;html=1;rounded=0;strokeWidth=2;" edge="1" parent="ijUQ5QHxTH0PN0Z5ZuHK-1">
          <mxGeometry width="50" height="50" relative="1" as="geometry">
            <mxPoint x="800" y="620" as="sourcePoint" />
            <mxPoint x="350" y="620" as="targetPoint" />
            <Array as="points">
              <mxPoint x="340" y="620" />
            </Array>
          </mxGeometry>
        </mxCell>
        <mxCell id="ijUQ5QHxTH0PN0Z5ZuHK-43" value="Kho Hàng Rời" style="ellipse;whiteSpace=wrap;html=1;" vertex="1" parent="ijUQ5QHxTH0PN0Z5ZuHK-1">
          <mxGeometry x="365" y="370" width="120" height="80" as="geometry" />
        </mxCell>
        <mxCell id="ijUQ5QHxTH0PN0Z5ZuHK-33" value="" style="endArrow=none;html=1;rounded=0;strokeWidth=5;" edge="1" parent="ijUQ5QHxTH0PN0Z5ZuHK-1">
          <mxGeometry width="50" height="50" relative="1" as="geometry">
            <mxPoint x="790" y="450" as="sourcePoint" />
            <mxPoint x="680" y="450.23" as="targetPoint" />
            <Array as="points">
              <mxPoint x="670" y="450.23" />
            </Array>
          </mxGeometry>
        </mxCell>
        <mxCell id="ijUQ5QHxTH0PN0Z5ZuHK-44" value="" style="shape=flexArrow;endArrow=classic;html=1;rounded=0;" edge="1" parent="ijUQ5QHxTH0PN0Z5ZuHK-1">
          <mxGeometry width="50" height="50" relative="1" as="geometry">
            <mxPoint x="595" y="480" as="sourcePoint" />
            <mxPoint x="425" y="370" as="targetPoint" />
          </mxGeometry>
        </mxCell>
        <mxCell id="ijUQ5QHxTH0PN0Z5ZuHK-46" value="" style="endArrow=none;html=1;rounded=0;fillColor=#e3c800;strokeColor=#B09500;strokeWidth=6;" edge="1" parent="ijUQ5QHxTH0PN0Z5ZuHK-1">
          <mxGeometry width="50" height="50" relative="1" as="geometry">
            <mxPoint x="640" y="460" as="sourcePoint" />
            <mxPoint x="640" y="270" as="targetPoint" />
          </mxGeometry>
        </mxCell>
        <mxCell id="ijUQ5QHxTH0PN0Z5ZuHK-47" value="" style="endArrow=none;html=1;rounded=0;strokeWidth=6;" edge="1" parent="ijUQ5QHxTH0PN0Z5ZuHK-1">
          <mxGeometry width="50" height="50" relative="1" as="geometry">
            <mxPoint x="670" y="450" as="sourcePoint" />
            <mxPoint x="670" y="240" as="targetPoint" />
          </mxGeometry>
        </mxCell>
        <mxCell id="ijUQ5QHxTH0PN0Z5ZuHK-50" value="" style="endArrow=none;html=1;rounded=0;strokeWidth=6;" edge="1" parent="ijUQ5QHxTH0PN0Z5ZuHK-1">
          <mxGeometry width="50" height="50" relative="1" as="geometry">
            <mxPoint x="570" y="170" as="sourcePoint" />
            <mxPoint x="670" y="240" as="targetPoint" />
          </mxGeometry>
        </mxCell>
        <mxCell id="ijUQ5QHxTH0PN0Z5ZuHK-48" value="" style="endArrow=none;html=1;rounded=0;strokeWidth=6;fillColor=#e3c800;strokeColor=#B09500;" edge="1" parent="ijUQ5QHxTH0PN0Z5ZuHK-1">
          <mxGeometry width="50" height="50" relative="1" as="geometry">
            <mxPoint x="470" y="170" as="sourcePoint" />
            <mxPoint x="640" y="280" as="targetPoint" />
          </mxGeometry>
        </mxCell>
        <mxCell id="ijUQ5QHxTH0PN0Z5ZuHK-53" value="" style="outlineConnect=0;dashed=0;verticalLabelPosition=bottom;verticalAlign=top;align=center;html=1;shape=mxgraph.aws3.connect;fillColor=#759C3E;gradientColor=none;" vertex="1" parent="ijUQ5QHxTH0PN0Z5ZuHK-1">
          <mxGeometry x="150" y="610" width="50.87" height="39" as="geometry" />
        </mxCell>
        <mxCell id="ijUQ5QHxTH0PN0Z5ZuHK-63" value="An Ninh" style="ellipse;whiteSpace=wrap;html=1;" vertex="1" parent="ijUQ5QHxTH0PN0Z5ZuHK-1">
          <mxGeometry x="460" y="10" width="120" height="80" as="geometry" />
        </mxCell>
        <mxCell id="ijUQ5QHxTH0PN0Z5ZuHK-64" value="" style="endArrow=none;html=1;rounded=0;fillColor=#e3c800;strokeColor=#B09500;strokeWidth=7;" edge="1" parent="ijUQ5QHxTH0PN0Z5ZuHK-1">
          <mxGeometry width="50" height="50" relative="1" as="geometry">
            <mxPoint x="230" y="30" as="sourcePoint" />
            <mxPoint x="470" y="170" as="targetPoint" />
            <Array as="points">
              <mxPoint x="420" y="30" />
            </Array>
          </mxGeometry>
        </mxCell>
        <mxCell id="ijUQ5QHxTH0PN0Z5ZuHK-65" value="" style="shape=flexArrow;endArrow=classic;html=1;rounded=0;" edge="1" parent="ijUQ5QHxTH0PN0Z5ZuHK-1">
          <mxGeometry width="50" height="50" relative="1" as="geometry">
            <mxPoint x="570.44" y="165" as="sourcePoint" />
            <mxPoint x="500.44" y="75" as="targetPoint" />
          </mxGeometry>
        </mxCell>
        <mxCell id="ijUQ5QHxTH0PN0Z5ZuHK-66" value="" style="ellipse;whiteSpace=wrap;html=1;" vertex="1" parent="ijUQ5QHxTH0PN0Z5ZuHK-1">
          <mxGeometry x="200" y="50" width="120" height="80" as="geometry" />
        </mxCell>
        <mxCell id="ijUQ5QHxTH0PN0Z5ZuHK-67" value="" style="shape=flexArrow;endArrow=classic;html=1;rounded=0;" edge="1" parent="ijUQ5QHxTH0PN0Z5ZuHK-1">
          <mxGeometry width="50" height="50" relative="1" as="geometry">
            <mxPoint x="230" y="30" as="sourcePoint" />
            <mxPoint x="260" y="100" as="targetPoint" />
          </mxGeometry>
        </mxCell>
        <mxCell id="ijUQ5QHxTH0PN0Z5ZuHK-68" value="" style="endArrow=none;html=1;rounded=0;fillColor=#f8cecc;gradientColor=#ea6b66;strokeColor=#b85450;strokeWidth=5;" edge="1" parent="ijUQ5QHxTH0PN0Z5ZuHK-1">
          <mxGeometry width="50" height="50" relative="1" as="geometry">
            <mxPoint x="160" y="60" as="sourcePoint" />
            <mxPoint x="260" y="61" as="targetPoint" />
          </mxGeometry>
        </mxCell>
        <mxCell id="ijUQ5QHxTH0PN0Z5ZuHK-70" value="Cổng&amp;nbsp; B" style="ellipse;whiteSpace=wrap;html=1;" vertex="1" parent="ijUQ5QHxTH0PN0Z5ZuHK-1">
          <mxGeometry x="80" width="120" height="80" as="geometry" />
        </mxCell>
        <mxCell id="ijUQ5QHxTH0PN0Z5ZuHK-40" value="" style="endArrow=none;html=1;rounded=0;fillColor=#e51400;strokeColor=#B20000;strokeWidth=4;" edge="1" parent="ijUQ5QHxTH0PN0Z5ZuHK-1">
          <mxGeometry width="50" height="50" relative="1" as="geometry">
            <mxPoint x="800" y="480" as="sourcePoint" />
            <mxPoint x="610" y="480" as="targetPoint" />
            <Array as="points">
              <mxPoint x="600" y="480" />
            </Array>
          </mxGeometry>
        </mxCell>
        <mxCell id="ijUQ5QHxTH0PN0Z5ZuHK-41" value="" style="endArrow=none;html=1;rounded=0;strokeWidth=5;fillColor=#e3c800;strokeColor=#B09500;" edge="1" parent="ijUQ5QHxTH0PN0Z5ZuHK-1">
          <mxGeometry width="50" height="50" relative="1" as="geometry">
            <mxPoint x="800" y="460" as="sourcePoint" />
            <mxPoint x="670" y="460" as="targetPoint" />
            <Array as="points">
              <mxPoint x="630" y="460" />
              <mxPoint x="710" y="460" />
            </Array>
          </mxGeometry>
        </mxCell>
        <mxCell id="ijUQ5QHxTH0PN0Z5ZuHK-74" value="" style="image;points=[];aspect=fixed;html=1;align=center;shadow=0;dashed=0;image=img/lib/allied_telesis/switch/Switch_24_port_L2_POE.svg;" vertex="1" parent="ijUQ5QHxTH0PN0Z5ZuHK-1">
          <mxGeometry x="410.6" y="410" width="74.4" height="51" as="geometry" />
        </mxCell>
        <mxCell id="ijUQ5QHxTH0PN0Z5ZuHK-75" value="" style="image;points=[];aspect=fixed;html=1;align=center;shadow=0;dashed=0;image=img/lib/allied_telesis/switch/Switch_24_port_L2_POE.svg;" vertex="1" parent="ijUQ5QHxTH0PN0Z5ZuHK-1">
          <mxGeometry x="530" y="10" width="74.4" height="51" as="geometry" />
        </mxCell>
        <mxCell id="ijUQ5QHxTH0PN0Z5ZuHK-76" value="" style="image;points=[];aspect=fixed;html=1;align=center;shadow=0;dashed=0;image=img/lib/allied_telesis/switch/Switch_24_port_L2_POE.svg;" vertex="1" parent="ijUQ5QHxTH0PN0Z5ZuHK-1">
          <mxGeometry x="260" y="61" width="74.4" height="51" as="geometry" />
        </mxCell>
        <mxCell id="ijUQ5QHxTH0PN0Z5ZuHK-79" value="VP 2" style="text;html=1;align=center;verticalAlign=middle;resizable=0;points=[];autosize=1;strokeColor=none;fillColor=none;" vertex="1" parent="ijUQ5QHxTH0PN0Z5ZuHK-1">
          <mxGeometry x="235" y="120" width="50" height="30" as="geometry" />
        </mxCell>
        <mxCell id="ijUQ5QHxTH0PN0Z5ZuHK-80" value="Tram Cân" style="ellipse;whiteSpace=wrap;html=1;aspect=fixed;" vertex="1" parent="ijUQ5QHxTH0PN0Z5ZuHK-1">
          <mxGeometry x="110" y="230" width="80" height="80" as="geometry" />
        </mxCell>
        <mxCell id="ijUQ5QHxTH0PN0Z5ZuHK-81" value="" style="endArrow=none;html=1;rounded=0;fillColor=#6a00ff;strokeColor=#3700CC;strokeWidth=6;" edge="1" parent="ijUQ5QHxTH0PN0Z5ZuHK-1">
          <mxGeometry width="50" height="50" relative="1" as="geometry">
            <mxPoint x="160" y="260" as="sourcePoint" />
            <mxPoint x="160" y="70" as="targetPoint" />
          </mxGeometry>
        </mxCell>
        <mxCell id="ijUQ5QHxTH0PN0Z5ZuHK-82" value="Tram Cân" style="ellipse;whiteSpace=wrap;html=1;aspect=fixed;" vertex="1" parent="ijUQ5QHxTH0PN0Z5ZuHK-1">
          <mxGeometry x="155" y="410" width="80" height="80" as="geometry" />
        </mxCell>
        <mxCell id="ijUQ5QHxTH0PN0Z5ZuHK-83" value="" style="endArrow=none;html=1;rounded=0;fillColor=#008a00;strokeColor=#005700;strokeWidth=6;" edge="1" parent="ijUQ5QHxTH0PN0Z5ZuHK-1">
          <mxGeometry width="50" height="50" relative="1" as="geometry">
            <mxPoint x="295" y="700" as="sourcePoint" />
            <mxPoint x="285" y="610" as="targetPoint" />
          </mxGeometry>
        </mxCell>
        <mxCell id="ijUQ5QHxTH0PN0Z5ZuHK-84" value="" style="endArrow=none;html=1;rounded=0;fillColor=#008a00;strokeColor=#005700;strokeWidth=6;" edge="1" parent="ijUQ5QHxTH0PN0Z5ZuHK-1">
          <mxGeometry width="50" height="50" relative="1" as="geometry">
            <mxPoint x="285" y="610" as="sourcePoint" />
            <mxPoint x="155" y="610" as="targetPoint" />
          </mxGeometry>
        </mxCell>
        <mxCell id="ijUQ5QHxTH0PN0Z5ZuHK-85" value="" style="endArrow=none;html=1;rounded=0;fillColor=#1ba1e2;strokeColor=#006EAF;strokeWidth=6;" edge="1" parent="ijUQ5QHxTH0PN0Z5ZuHK-1">
          <mxGeometry width="50" height="50" relative="1" as="geometry">
            <mxPoint x="313" y="700" as="sourcePoint" />
            <mxPoint x="293" y="570" as="targetPoint" />
          </mxGeometry>
        </mxCell>
        <mxCell id="ijUQ5QHxTH0PN0Z5ZuHK-86" value="" style="endArrow=none;html=1;rounded=0;fillColor=#1ba1e2;strokeColor=#006EAF;strokeWidth=6;" edge="1" parent="ijUQ5QHxTH0PN0Z5ZuHK-1">
          <mxGeometry width="50" height="50" relative="1" as="geometry">
            <mxPoint x="300" y="570" as="sourcePoint" />
            <mxPoint x="140" y="570" as="targetPoint" />
          </mxGeometry>
        </mxCell>
        <mxCell id="ijUQ5QHxTH0PN0Z5ZuHK-87" value="" style="shape=flexArrow;endArrow=classic;html=1;rounded=0;" edge="1" parent="ijUQ5QHxTH0PN0Z5ZuHK-1">
          <mxGeometry width="50" height="50" relative="1" as="geometry">
            <mxPoint x="140" y="565" as="sourcePoint" />
            <mxPoint x="210" y="475" as="targetPoint" />
          </mxGeometry>
        </mxCell>
        <mxCell id="ijUQ5QHxTH0PN0Z5ZuHK-89" value="" style="outlineConnect=0;dashed=0;verticalLabelPosition=bottom;verticalAlign=top;align=center;html=1;shape=mxgraph.aws3.connect;fillColor=#759C3E;gradientColor=none;" vertex="1" parent="ijUQ5QHxTH0PN0Z5ZuHK-1">
          <mxGeometry x="99.13" y="520" width="50.87" height="39" as="geometry" />
        </mxCell>
        <mxCell id="ijUQ5QHxTH0PN0Z5ZuHK-91" value="Bai Hang" style="ellipse;whiteSpace=wrap;html=1;aspect=fixed;" vertex="1" parent="ijUQ5QHxTH0PN0Z5ZuHK-1">
          <mxGeometry y="589.5" width="80" height="80" as="geometry" />
        </mxCell>
        <mxCell id="ijUQ5QHxTH0PN0Z5ZuHK-92" value="" style="endArrow=none;html=1;rounded=0;fillColor=#008a00;strokeColor=#005700;strokeWidth=6;" edge="1" parent="ijUQ5QHxTH0PN0Z5ZuHK-1">
          <mxGeometry width="50" height="50" relative="1" as="geometry">
            <mxPoint x="140" y="610" as="sourcePoint" />
            <mxPoint x="10" y="610" as="targetPoint" />
          </mxGeometry>
        </mxCell>
        <mxCell id="ijUQ5QHxTH0PN0Z5ZuHK-94" value="Kỹ Thuật" style="ellipse;whiteSpace=wrap;html=1;aspect=fixed;" vertex="1" parent="ijUQ5QHxTH0PN0Z5ZuHK-1">
          <mxGeometry y="60" width="80" height="80" as="geometry" />
        </mxCell>
        <mxCell id="ijUQ5QHxTH0PN0Z5ZuHK-95" value="" style="endArrow=none;html=1;rounded=0;fillColor=#6d8764;strokeColor=#3A5431;strokeWidth=6;" edge="1" parent="ijUQ5QHxTH0PN0Z5ZuHK-1">
          <mxGeometry width="50" height="50" relative="1" as="geometry">
            <mxPoint x="150" y="70" as="sourcePoint" />
            <mxPoint x="20" y="70" as="targetPoint" />
          </mxGeometry>
        </mxCell>
        <mxCell id="ijUQ5QHxTH0PN0Z5ZuHK-97" value="Vật Tư" style="ellipse;whiteSpace=wrap;html=1;aspect=fixed;" vertex="1" parent="ijUQ5QHxTH0PN0Z5ZuHK-1">
          <mxGeometry x="-10" y="230" width="80" height="80" as="geometry" />
        </mxCell>
        <mxCell id="ijUQ5QHxTH0PN0Z5ZuHK-99" value="" style="endArrow=none;html=1;rounded=0;fillColor=#f0a30a;strokeColor=#BD7000;strokeWidth=6;" edge="1" parent="ijUQ5QHxTH0PN0Z5ZuHK-1">
          <mxGeometry width="50" height="50" relative="1" as="geometry">
            <mxPoint x="39.22999999999999" y="252" as="sourcePoint" />
            <mxPoint x="39.22999999999999" y="112" as="targetPoint" />
          </mxGeometry>
        </mxCell>
        <mxCell id="ijUQ5QHxTH0PN0Z5ZuHK-100" value="Bãi rỗng" style="ellipse;whiteSpace=wrap;html=1;aspect=fixed;" vertex="1" parent="ijUQ5QHxTH0PN0Z5ZuHK-1">
          <mxGeometry y="430" width="80" height="80" as="geometry" />
        </mxCell>
        <mxCell id="ijUQ5QHxTH0PN0Z5ZuHK-101" value="" style="endArrow=none;html=1;rounded=0;fillColor=#e51400;strokeColor=#B20000;strokeWidth=6;" edge="1" parent="ijUQ5QHxTH0PN0Z5ZuHK-1">
          <mxGeometry width="50" height="50" relative="1" as="geometry">
            <mxPoint x="39.22999999999999" y="440" as="sourcePoint" />
            <mxPoint x="39.22999999999999" y="300" as="targetPoint" />
          </mxGeometry>
        </mxCell>
        <mxCell id="ijUQ5QHxTH0PN0Z5ZuHK-77" value="" style="image;points=[];aspect=fixed;html=1;align=center;shadow=0;dashed=0;image=img/lib/allied_telesis/switch/Switch_24_port_L2_POE.svg;" vertex="1" parent="1">
          <mxGeometry x="440.6" y="470" width="74.4" height="51" as="geometry" />
        </mxCell>
        <mxCell id="ijUQ5QHxTH0PN0Z5ZuHK-88" value="" style="outlineConnect=0;dashed=0;verticalLabelPosition=bottom;verticalAlign=top;align=center;html=1;shape=mxgraph.aws3.connect;fillColor=#759C3E;gradientColor=none;" vertex="1" parent="1">
          <mxGeometry x="590" y="530" width="50.87" height="39" as="geometry" />
        </mxCell>
      </root>
    </mxGraphModel>
  </diagram>
</mxfile>
